<svg width="200" height="200" viewBox="0 0 200 200" fill="none" xmlns="http://www.w3.org/2000/svg">
<path d="M103.796 108.902C104.146 102.645 107.211 97.1325 111.833 93.2249C116.366 89.387 122.467 87.0407 129.125 87.0407C135.776 87.0407 141.877 89.387 146.414 93.2249C151.033 97.1325 154.097 102.645 154.451 108.896C154.802 115.325 152.218 121.298 147.684 125.725C143.062 130.228 136.487 133.054 129.125 133.054C121.763 133.054 115.175 130.228 110.556 125.725C106.019 121.298 103.442 115.325 103.796 108.902Z" fill="#363636"/>
<path d="M63.5829 121.757C63.627 124.21 64.4091 128.979 65.5834 132.702C68.0501 140.584 72.2346 147.876 78.0574 154.302C84.033 160.908 91.3907 166.214 99.8904 169.98C108.823 173.936 118.502 175.952 128.556 175.936C138.593 175.922 148.273 173.867 157.206 169.88C165.705 166.077 173.056 160.748 179.022 154.14C184.841 147.687 189.019 140.382 191.493 132.5C192.737 128.517 193.522 124.475 193.837 120.42C194.146 116.418 194.015 112.396 193.45 108.423C192.342 100.63 189.646 93.3189 185.494 86.6537C181.697 80.529 176.804 75.1674 170.984 70.6539L170.997 70.6444L112.269 25.5501C112.215 25.5105 112.172 25.4679 112.115 25.4312C108.263 22.4731 101.783 22.4834 97.5455 25.4473C93.2612 28.445 92.7706 33.4028 96.5835 36.529L96.5673 36.5459L121.062 56.4651L46.4037 56.5444H46.3038C40.1329 56.5517 34.2013 60.6003 33.0263 65.7167C31.8198 70.9293 36.0116 75.2533 42.4278 75.2768L42.4175 75.2996L80.2598 75.2261L12.7327 127.059C12.6467 127.122 12.5535 127.188 12.4742 127.251C6.1042 132.129 4.04502 140.24 8.0569 145.373C12.129 150.593 20.7873 150.602 27.2233 145.403L64.0771 115.241C64.0771 115.241 63.5396 119.313 63.5829 121.757ZM158.284 135.391C150.691 143.128 140.059 147.514 128.557 147.538C117.037 147.558 106.406 143.21 98.8123 135.487C95.1015 131.724 92.3763 127.393 90.6945 122.781C89.0409 118.241 88.4048 113.394 88.8314 108.582C89.2324 103.837 90.6453 99.3107 92.8999 95.2151C95.1147 91.19 98.1653 87.5519 101.933 84.4748C109.313 78.4603 118.711 75.2034 128.539 75.1901C138.378 75.1769 147.769 78.4038 155.157 84.3992C158.917 87.4623 161.965 91.0871 164.18 95.1064C166.463 99.2237 167.855 103.776 168.265 108.466C168.685 113.275 168.047 118.118 166.395 122.654C164.71 127.281 161.994 131.611 158.284 135.391Z" fill="#363636"/>
</svg>
