<svg width="200" height="200" viewBox="0 0 200 200" fill="none" xmlns="http://www.w3.org/2000/svg">
<g clip-path="url(#clip0_1_2)">
<path d="M63.6667 194C80.9627 194 95 179.963 95 162.667V131.333H63.6667C46.3707 131.333 32.3333 145.371 32.3333 162.667C32.3333 179.963 46.3707 194 63.6667 194Z" fill="#363636"/>
<path d="M32.3333 100C32.3333 82.704 46.3707 68.6667 63.6667 68.6667H95V131.333H63.6667C46.3707 131.333 32.3333 117.296 32.3333 100Z" fill="#363636"/>
<path d="M63.6667 6C46.3707 6 32.3333 20.0373 32.3333 37.3333C32.3333 54.6293 46.3707 68.6667 63.6667 68.6667H126.333C143.629 68.6667 157.667 54.6293 157.667 37.3333C157.667 20.0373 143.629 6 126.333 6H63.6667Z" fill="#363636"/>
<path d="M157.667 100C157.667 117.296 143.629 131.333 126.333 131.333C109.037 131.333 95 117.296 95 100C95 82.704 109.037 68.6667 126.333 68.6667C143.629 68.6667 157.667 82.704 157.667 100Z" fill="#363636"/>
</g>
<defs>
<clipPath id="clip0_1_2">
<rect width="125.333" height="188" fill="white" transform="translate(32.3333 6)"/>
</clipPath>
</defs>
</svg>
