<svg width="200" height="200" viewBox="0 0 200 200" fill="none" xmlns="http://www.w3.org/2000/svg">
<path fill-rule="evenodd" clip-rule="evenodd" d="M50.0625 6H149.938C174.273 6 194 25.7275 194 50.0625V149.938C194 174.273 174.273 194 149.938 194H50.0625C25.7275 194 6 174.273 6 149.938V50.0625C6 25.7275 25.7275 6 50.0625 6ZM67.7264 117.87H96.8664L103.29 136.513C103.446 137.062 103.995 137.453 104.543 137.375H120.915C121.698 137.375 121.933 136.983 121.698 136.122L93.1064 55.4381C93.0278 55.0467 92.715 54.8117 92.0878 54.8117H71.8C71.4078 54.8895 71.095 55.2817 71.1728 55.6731C71.1728 57.3967 71.0164 59.1195 70.7028 60.7645C70.4824 61.4269 70.3006 62.0506 70.1302 62.6351C70.0588 62.8801 69.9894 63.1183 69.92 63.3495L44.6964 135.965C44.4614 136.905 44.6964 137.375 45.5578 137.375H60.285C60.99 137.453 61.6164 136.983 61.7728 136.278L67.7264 117.87ZM92.1664 101.968H72.27C73.5553 98.357 74.7049 94.6989 75.7164 91.0017C76.493 88.575 77.2394 86.1486 77.9744 83.7596C78.4258 82.2921 78.8729 80.8388 79.32 79.4081C80.4164 76.0403 81.2778 72.6717 81.9828 69.3031H82.14C82.4444 70.3476 82.7489 71.4405 83.067 72.5817C83.3214 73.4947 83.5844 74.4385 83.8628 75.4131C84.49 77.6845 85.195 79.9567 85.9778 82.3846C86.3696 83.5988 86.7418 84.7935 87.1139 85.9881C87.4861 87.1828 87.8582 88.3774 88.25 89.5917C88.955 91.9417 89.66 94.2131 90.365 96.3281C91.07 98.3645 91.6964 100.323 92.1664 101.968ZM132.195 65.7781C134.075 67.5795 136.581 68.5981 139.166 68.5196C141.83 68.6767 144.494 67.6581 146.295 65.7781C148.175 63.8195 149.115 61.2345 149.036 58.5717C149.115 55.9998 148.188 53.4986 146.451 51.5995C144.729 49.7981 142.379 48.8581 139.324 48.8581C136.739 48.8581 134.231 49.7974 132.351 51.5995C130.471 53.4017 129.454 55.9081 129.531 58.5717C129.454 61.2345 130.394 63.8195 132.195 65.7781ZM130.394 76.1967V136.513C130.394 137.297 130.785 137.767 131.569 137.767H146.921C147.626 137.767 147.94 137.375 147.94 136.513V76.1967C147.94 75.4917 147.626 75.0995 146.921 75.0995H131.411C130.706 75.0995 130.394 75.4131 130.394 76.1967Z" fill="#363636"/>
</svg>
