<svg width="200" height="200" viewBox="0 0 200 200" fill="none" xmlns="http://www.w3.org/2000/svg">
<path fill-rule="evenodd" clip-rule="evenodd" d="M160.708 8.35001H39.2922C20.8828 8.35001 6 23.2328 6 41.6422V158.358C6 176.767 20.8828 191.65 39.2922 191.65H160.708C179.117 191.65 194 176.767 194 158.358V41.6422C194 23.2328 179.117 8.35001 160.708 8.35001ZM66.2393 55.0372C68.6671 54.9579 71.0171 54.9579 73.3671 54.9579C79.79 54.9579 85.1157 55.7407 89.5028 57.3857C93.4353 58.7215 97.0211 60.916 100 63.81C102.524 66.3428 104.474 69.3882 105.719 72.74C106.894 76.03 107.52 79.3979 107.52 82.9229C107.52 89.6595 105.953 95.2212 102.82 99.6079C99.6871 103.995 95.3 107.285 90.2078 109.165C84.8821 111.123 79.0071 111.828 72.5828 111.828C70.7028 111.828 69.45 111.828 68.6671 111.75C67.8828 111.672 66.7857 111.672 65.2978 111.672V136.817C65.3771 137.365 64.985 137.835 64.4371 137.914H49.24C48.6128 137.914 48.3 137.6 48.3 136.895V56.29C48.3 55.7407 48.535 55.4279 49.0828 55.4279C50.415 55.4279 51.6678 55.4279 53.47 55.35C54.4382 55.3099 55.427 55.2905 56.4474 55.2704C57.4083 55.2515 58.3971 55.2321 59.4228 55.1943C60.5267 55.1529 61.6735 55.1331 62.863 55.1126C63.9525 55.0938 65.0779 55.0744 66.2393 55.0372ZM83.1578 71.9557C80.6228 70.9276 77.9056 70.4399 75.115 70.3871C74.7164 70.3792 74.3165 70.3802 73.915 70.39C71.8778 70.39 70.0771 70.39 68.5893 70.4693C67.0221 70.39 65.925 70.4679 65.3771 70.5472V96.8672C65.4579 96.8729 65.5383 96.8786 65.6182 96.8843C66.6236 96.9561 67.5599 97.0229 68.4307 97.0229H72.5828C75.6378 97.0229 78.6928 96.5543 81.5921 95.6143C84.0978 94.9093 86.2907 93.42 88.015 91.4622C89.66 89.5043 90.4443 86.84 90.4443 83.3943C90.5165 80.946 89.8915 78.5275 88.6421 76.4207C87.31 74.385 85.43 72.8179 83.1578 71.9557ZM126.947 77.1272C130.628 75.2472 135.25 74.3865 140.812 74.3865C144.062 74.3875 147.309 74.6217 150.525 75.09C152.838 75.4036 155.102 76.0091 157.262 76.8922C157.575 76.97 157.888 77.2843 158.045 77.5972L158.049 77.6139C158.126 77.9212 158.202 78.2285 158.202 78.5372V91.305C158.203 91.4574 158.168 91.6078 158.1 91.744C158.032 91.8803 157.932 91.9986 157.81 92.0893C157.105 92.245 156.713 92.245 156.4 92.0893C154.05 90.835 151.544 89.9729 148.88 89.425C145.981 88.7979 143.083 88.4057 140.106 88.4057C138.54 88.3279 136.895 88.5643 135.406 88.955C134.388 89.19 133.527 89.7393 132.978 90.5222C132.587 91.1493 132.352 91.9322 132.352 92.6372C132.352 93.3422 132.665 94.0457 133.135 94.6729C133.84 95.535 134.78 96.24 135.798 96.7879C137.614 97.7282 139.47 98.5906 141.36 99.3729C145.592 100.798 149.641 102.717 153.423 105.092C156.008 106.737 158.123 108.93 159.612 111.594C160.871 114.093 161.49 116.865 161.413 119.662C161.477 123.365 160.412 126.999 158.358 130.08C156.165 133.214 153.11 135.642 149.585 137.052C145.747 138.697 141.046 139.558 135.406 139.558C131.803 139.558 128.279 139.245 124.754 138.54C121.991 138.063 119.305 137.22 116.764 136.033C116.215 135.72 115.824 135.172 115.902 134.545V120.915C115.902 120.68 115.98 120.367 116.215 120.211C116.45 120.054 116.685 120.132 116.92 120.289C119.937 122.069 123.214 123.364 126.633 124.127C129.61 124.91 132.744 125.302 135.877 125.302C138.854 125.302 140.969 124.91 142.379 124.205C143.632 123.657 144.494 122.325 144.494 120.915C144.494 119.818 143.867 118.8 142.614 117.781C141.36 116.763 138.775 115.588 134.937 114.1C131 112.713 127.26 110.817 123.814 108.46C121.359 106.711 119.325 104.437 117.86 101.802C116.61 99.3281 115.991 96.5833 116.058 93.8122C116.058 90.4429 116.999 87.2322 118.722 84.3329C120.68 81.2 123.579 78.6943 126.947 77.1272Z" fill="#363636"/>
</svg>
