<svg width="200" height="200" viewBox="0 0 200 200" fill="none" xmlns="http://www.w3.org/2000/svg">
<path d="M59.9451 147.355C65.9925 128.464 86.2479 118.07 105.348 124.066C124.442 130.05 134.951 150.102 128.897 169C122.85 187.897 102.588 198.304 83.4938 192.301C64.3871 186.317 53.885 166.265 59.9451 147.355Z" fill="#363636"/>
<path d="M83.4875 29.4588C97.1371 66.1494 101.42 68.1038 138.498 54.6003C157.294 47.747 178.012 57.2147 184.929 75.8265C191.846 94.4319 182.289 114.947 163.481 121.782C144.685 128.635 123.967 119.167 117.05 100.562C103.407 63.8649 99.1106 61.8978 62.0329 75.4013C43.2371 82.2546 22.5185 72.7869 15.5953 54.1815C8.67858 35.576 18.2415 15.0732 37.0373 8.21986C55.8458 1.38559 76.5644 10.8533 83.4875 29.4588Z" fill="#363636"/>
</svg>
